<svg width="6" height="24" viewBox="0 0 6 24" fill="none" xmlns="http://www.w3.org/2000/svg">
<path d="M3 17.4077C2.20435 17.4077 1.44129 17.7145 0.87868 18.2605C0.31607 18.8066 0 19.5472 0 20.3195C0 21.0917 0.31607 21.8323 0.87868 22.3784C1.44129 22.9245 2.20435 23.2312 3 23.2312C3.79565 23.2312 4.55871 22.9245 5.12132 22.3784C5.68393 21.8323 6 21.0917 6 20.3195C6 19.5472 5.68393 18.8066 5.12132 18.2605C4.55871 17.7145 3.79565 17.4077 3 17.4077ZM3 9.08837C2.20435 9.08837 1.44129 9.39515 0.87868 9.94121C0.31607 10.4873 0 11.2279 0 12.0001C0 12.7724 0.31607 13.513 0.87868 14.0591C1.44129 14.6051 2.20435 14.9119 3 14.9119C3.79565 14.9119 4.55871 14.6051 5.12132 14.0591C5.68393 13.513 6 12.7724 6 12.0001C6 11.2279 5.68393 10.4873 5.12132 9.94121C4.55871 9.39515 3.79565 9.08837 3 9.08837ZM6 3.68081C6 2.90856 5.68393 2.16794 5.12132 1.62188C4.55871 1.07582 3.79565 0.769043 3 0.769043C2.20435 0.769043 1.44129 1.07582 0.87868 1.62188C0.31607 2.16794 0 2.90856 0 3.68081C0 4.45306 0.31607 5.19367 0.87868 5.73974C1.44129 6.2858 2.20435 6.59257 3 6.59257C3.79565 6.59257 4.55871 6.2858 5.12132 5.73974C5.68393 5.19367 6 4.45306 6 3.68081Z" fill="#959595"/>
</svg>
