<svg width="173" height="146" viewBox="0 0 173 146" fill="none" xmlns="http://www.w3.org/2000/svg">
<path id="Vector" d="M151.375 15.6429C154.348 15.6429 156.781 17.9893 156.781 20.8571V125.078L155.092 122.959L109.139 65.6022C107.618 63.6795 105.219 62.5714 102.719 62.5714C100.218 62.5714 97.8531 63.6795 96.2988 65.6022L68.2539 100.603L57.9482 86.6875C56.4277 84.6344 53.9949 83.4286 51.3594 83.4286C48.7238 83.4286 46.291 84.6344 44.7705 86.7201L17.7393 123.22L16.2188 125.241V125.143V20.8571C16.2188 17.9893 18.6516 15.6429 21.625 15.6429H151.375ZM21.625 0C9.69746 0 0 9.35313 0 20.8571V125.143C0 136.647 9.69746 146 21.625 146H151.375C163.303 146 173 136.647 173 125.143V20.8571C173 9.35313 163.303 0 151.375 0H21.625ZM48.6562 62.5714C50.7861 62.5714 52.8951 62.1668 54.8629 61.3807C56.8306 60.5946 58.6186 59.4423 60.1246 57.9897C61.6307 56.5372 62.8254 54.8127 63.6404 52.9148C64.4555 51.017 64.875 48.9828 64.875 46.9286C64.875 44.8743 64.4555 42.8402 63.6404 40.9423C62.8254 39.0444 61.6307 37.32 60.1246 35.8674C58.6186 34.4148 56.8306 33.2626 54.8629 32.4765C52.8951 31.6903 50.7861 31.2857 48.6562 31.2857C46.5264 31.2857 44.4174 31.6903 42.4496 32.4765C40.4819 33.2626 38.6939 34.4148 37.1879 35.8674C35.6818 37.32 34.4871 39.0444 33.6721 40.9423C32.857 42.8402 32.4375 44.8743 32.4375 46.9286C32.4375 48.9828 32.857 51.017 33.6721 52.9148C34.4871 54.8127 35.6818 56.5372 37.1879 57.9897C38.6939 59.4423 40.4819 60.5946 42.4496 61.3807C44.4174 62.1668 46.5264 62.5714 48.6562 62.5714Z" fill="#959595"/>
</svg>
