<svg width="26" height="26" viewBox="0 0 26 26" fill="none" xmlns="http://www.w3.org/2000/svg">
<path d="M21.126 10.5606C21.126 12.8915 20.3694 15.0448 19.0947 16.7917L25.5239 23.226C26.1587 23.8608 26.1587 24.8917 25.5239 25.5265C24.8891 26.1613 23.8582 26.1613 23.2234 25.5265L16.7942 19.0922C15.0472 20.372 12.894 21.1236 10.563 21.1236C4.72796 21.1236 0 16.3956 0 10.5606C0 4.72552 4.72796 -0.00244141 10.563 -0.00244141C16.3981 -0.00244141 21.126 4.72552 21.126 10.5606ZM10.563 17.8734C11.5234 17.8734 12.4743 17.6843 13.3615 17.3168C14.2488 16.9493 15.0549 16.4106 15.734 15.7315C16.413 15.0525 16.9517 14.2463 17.3192 13.3591C17.6867 12.4718 17.8759 11.5209 17.8759 10.5606C17.8759 9.60024 17.6867 8.6493 17.3192 7.76207C16.9517 6.87483 16.413 6.06867 15.734 5.3896C15.0549 4.71054 14.2488 4.17188 13.3615 3.80438C12.4743 3.43687 11.5234 3.24772 10.563 3.24772C9.60268 3.24772 8.65174 3.43687 7.76451 3.80438C6.87727 4.17188 6.07111 4.71054 5.39204 5.3896C4.71298 6.06867 4.17432 6.87483 3.80682 7.76207C3.43931 8.6493 3.25016 9.60024 3.25016 10.5606C3.25016 11.5209 3.43931 12.4718 3.80682 13.3591C4.17432 14.2463 4.71298 15.0525 5.39204 15.7315C6.07111 16.4106 6.87727 16.9493 7.76451 17.3168C8.65174 17.6843 9.60268 17.8734 10.563 17.8734Z" fill="white"/>
</svg>
