<?xml version="1.0" encoding="UTF-8" standalone="no"?>
<!-- Created with Inkscape (http://www.inkscape.org/) -->

<svg
   width="74.42131mm"
   height="95.25795mm"
   viewBox="0 0 74.42131 95.25795"
   version="1.1"
   id="svg1"
   xml:space="preserve"
   inkscape:version="1.3 (0e150ed6c4, 2023-07-21)"
   sodipodi:docname="Y_logo.svg"
   xmlns:inkscape="http://www.inkscape.org/namespaces/inkscape"
   xmlns:sodipodi="http://sodipodi.sourceforge.net/DTD/sodipodi-0.dtd"
   xmlns="http://www.w3.org/2000/svg"
   xmlns:svg="http://www.w3.org/2000/svg"><sodipodi:namedview
     id="namedview1"
     pagecolor="#505050"
     bordercolor="#eeeeee"
     borderopacity="1"
     inkscape:showpageshadow="0"
     inkscape:pageopacity="0"
     inkscape:pagecheckerboard="0"
     inkscape:deskcolor="#d1d1d1"
     inkscape:document-units="mm"
     showguides="true"
     inkscape:zoom="0.35355339"
     inkscape:cx="555.78593"
     inkscape:cy="148.49242"
     inkscape:window-width="1920"
     inkscape:window-height="1046"
     inkscape:window-x="-11"
     inkscape:window-y="-11"
     inkscape:window-maximized="1"
     inkscape:current-layer="layer1"><sodipodi:guide
       position="175.08615,364.49056"
       orientation="0.72455794,-0.68921389"
       id="guide12"
       inkscape:locked="false" /><sodipodi:guide
       position="174.48745,367.05693"
       orientation="-0.69735308,0.71672776"
       id="guide1"
       inkscape:locked="false" /></sodipodi:namedview><defs
     id="defs1" /><g
     inkscape:label="Calque 1"
     inkscape:groupmode="layer"
     id="layer1"
     transform="translate(-9.5302584,-200.05003)"><g
       id="g4"
       inkscape:export-filename="Y_logo_simplifier.svg"
       inkscape:export-xdpi="96"
       inkscape:export-ydpi="96"
       transform="matrix(8.6106005,0,0,8.6106005,-1512.3678,-907.87758)"><path
         d="m 179.27529,134.32648 0.81443,0.75241 c 0.57189,0.6146 0.51953,1.77491 -0.0951,2.29029 l -2.05465,2.15801 c -0.82683,-0.55673 -1.43868,-1.92374 -0.54571,-3.05924 l 2.01746,-2.01745"
         style="opacity:1;fill:#2d2d2d;fill-opacity:0;fill-rule:evenodd;stroke:none;stroke-width:0.396875;stroke-linejoin:round;stroke-dasharray:none;stroke-opacity:1"
         id="path1-4"
         sodipodi:nodetypes="cccccc" /><path
         d="m 181.64071,135.70674 c 0.59402,-0.71403 0.97962,-1.75504 0.29765,-2.497 l -4.05143,-4.34909 c -1.2678,1.20165 -1.08038,2.43637 -0.42995,3.25768 l 2.69545,2.96003 c 0.57189,0.6146 0.51953,1.77491 -0.0951,2.29029 l 1.61409,-1.69859"
         style="opacity:1;fill:#2d2d2d;fill-opacity:0;fill-rule:evenodd;stroke:none;stroke-width:0.396875;stroke-linejoin:round;stroke-dasharray:none;stroke-opacity:1"
         id="path1"
         sodipodi:nodetypes="ccccccc" /><path
         style="opacity:1;fill:none;fill-opacity:1;fill-rule:evenodd;stroke:#2d2d2d;stroke-width:0.396875;stroke-linejoin:round;stroke-dasharray:none;stroke-opacity:1"
         d="m 180.03242,137.40143 1.60404,-1.68672 c 0.59402,-0.71403 0.97962,-1.75504 0.29765,-2.497 l -4.05143,-4.34909 c -1.2678,1.20165 -1.08038,2.43637 -0.42995,3.25768 l 2.69545,2.96003 c 0.57189,0.6146 0.51953,1.77491 -0.0951,2.29029 l -2.05465,2.15801 c -0.82683,-0.55673 -1.43868,-1.92374 -0.54571,-3.05924 l 2.01746,-2.01745"
         id="path11"
         sodipodi:nodetypes="cccccccccc" /><path
         style="opacity:1;fill:#2d2d2d;fill-opacity:0;fill-rule:evenodd;stroke:#2d2d2d;stroke-width:0.397;stroke-linecap:round;stroke-linejoin:round;stroke-dasharray:none;stroke-opacity:1"
         d="m 182.00018,132.01062 c 0.79375,-0.8158 1.95821,-2.50386 2.92695,-1.45521 0.92961,1.0063 -0.79375,2.49701 -1.90169,3.65456 0.44383,-1.04799 -0.0656,-1.17225 -1.02526,-2.19935 z"
         id="path12"
         sodipodi:nodetypes="cscc" /></g></g></svg>
