<svg width="26" height="30" viewBox="0 0 26 30" fill="none" xmlns="http://www.w3.org/2000/svg">
<g id="user-regular 1" clip-path="url(#clip0_130_417)">
<path id="Vector" d="M17.6429 7.5C17.6429 6.2568 17.1537 5.06451 16.283 4.18544C15.4123 3.30636 14.2314 2.8125 13 2.8125C11.7686 2.8125 10.5877 3.30636 9.717 4.18544C8.8463 5.06451 8.35714 6.2568 8.35714 7.5C8.35714 8.7432 8.8463 9.93549 9.717 10.8146C10.5877 11.6936 11.7686 12.1875 13 12.1875C14.2314 12.1875 15.4123 11.6936 16.283 10.8146C17.1537 9.93549 17.6429 8.7432 17.6429 7.5ZM5.57143 7.5C5.57143 5.51088 6.35408 3.60322 7.74721 2.1967C9.14033 0.790176 11.0298 0 13 0C14.9702 0 16.8597 0.790176 18.2528 2.1967C19.6459 3.60322 20.4286 5.51088 20.4286 7.5C20.4286 9.48912 19.6459 11.3968 18.2528 12.8033C16.8597 14.2098 14.9702 15 13 15C11.0298 15 9.14033 14.2098 7.74721 12.8033C6.35408 11.3968 5.57143 9.48912 5.57143 7.5ZM2.86116 27.1875H23.1388C22.6223 23.4785 19.4652 20.625 15.6522 20.625H10.3478C6.53482 20.625 3.37768 23.4785 2.86116 27.1875ZM0 28.2598C0 22.4883 4.63125 17.8125 10.3478 17.8125H15.6522C21.3687 17.8125 26 22.4883 26 28.2598C26 29.2207 25.2281 30 24.2763 30H1.72366C0.771875 30 0 29.2207 0 28.2598Z" fill="white"/>
</g>
<defs>
<clipPath id="clip0_130_417">
<rect width="26" height="30" fill="white"/>
</clipPath>
</defs>
</svg>
